# xmcd
# Copyright (C) 1995-1998 Ti Kan
#
# Track frame offsets:
#       150
#       103881
#       222802
#
# Disc length: 4104 seconds
#
# Revision: 0
# Processed by: cddbd v1.5.2PL0 Copyright (c) Steve Scherf et al.
# Submitted via: CD-Import v1.0
#
DISCID=25100603
DTITLE=Herr Der Ringe - Herr Der Ringe
DYEAR=1900
DGENRE=
TTITLE0=Hdr4.1
TTITLE1=Hdr4.2
TTITLE2=Hdr4.3
EXTD=
EXTT0=
EXTT1=
EXTT2=
PLAYORDER=
